<svg width="1280" height="640" viewBox="0 0 1280 640" fill="none" xmlns="http://www.w3.org/2000/svg">
  <defs>
    <linearGradient id="bg" x1="98" y1="54" x2="1128" y2="596" gradientUnits="userSpaceOnUse">
      <stop stop-color="#020817"/>
      <stop offset="0.5" stop-color="#071327"/>
      <stop offset="1" stop-color="#0B1020"/>
    </linearGradient>
    <radialGradient id="glowLeft" cx="0" cy="0" r="1" gradientUnits="userSpaceOnUse" gradientTransform="translate(232 208) rotate(38.6) scale(412 261)">
      <stop stop-color="#22D3EE" stop-opacity="0.45"/>
      <stop offset="1" stop-color="#22D3EE" stop-opacity="0"/>
    </radialGradient>
    <radialGradient id="glowRight" cx="0" cy="0" r="1" gradientUnits="userSpaceOnUse" gradientTransform="translate(1042 466) rotate(153.1) scale(398 268)">
      <stop stop-color="#FBBF24" stop-opacity="0.32"/>
      <stop offset="1" stop-color="#FBBF24" stop-opacity="0"/>
    </radialGradient>
    <linearGradient id="line" x1="182" y1="158" x2="1128" y2="508" gradientUnits="userSpaceOnUse">
      <stop stop-color="#22D3EE" stop-opacity="0.85"/>
      <stop offset="1" stop-color="#FBBF24" stop-opacity="0.75"/>
    </linearGradient>
    <linearGradient id="panel" x1="812" y1="148" x2="1098" y2="454" gradientUnits="userSpaceOnUse">
      <stop stop-color="#0F172A" stop-opacity="0.94"/>
      <stop offset="1" stop-color="#111827" stop-opacity="0.9"/>
    </linearGradient>
    <filter id="softGlow" x="0" y="0" width="1280" height="640" filterUnits="userSpaceOnUse" color-interpolation-filters="sRGB">
      <feGaussianBlur stdDeviation="36"/>
    </filter>
  </defs>

  <rect width="1280" height="640" rx="32" fill="url(#bg)"/>
  <g opacity="0.65">
    <path d="M118 84H1162" stroke="#163047" stroke-width="1"/>
    <path d="M118 156H1162" stroke="#163047" stroke-width="1"/>
    <path d="M118 228H1162" stroke="#163047" stroke-width="1"/>
    <path d="M118 300H1162" stroke="#163047" stroke-width="1"/>
    <path d="M118 372H1162" stroke="#163047" stroke-width="1"/>
    <path d="M118 444H1162" stroke="#163047" stroke-width="1"/>
    <path d="M118 516H1162" stroke="#163047" stroke-width="1"/>
    <path d="M196 48V592" stroke="#163047" stroke-width="1"/>
    <path d="M320 48V592" stroke="#163047" stroke-width="1"/>
    <path d="M444 48V592" stroke="#163047" stroke-width="1"/>
    <path d="M568 48V592" stroke="#163047" stroke-width="1"/>
    <path d="M692 48V592" stroke="#163047" stroke-width="1"/>
    <path d="M816 48V592" stroke="#163047" stroke-width="1"/>
    <path d="M940 48V592" stroke="#163047" stroke-width="1"/>
    <path d="M1064 48V592" stroke="#163047" stroke-width="1"/>
  </g>

  <g filter="url(#softGlow)">
    <ellipse cx="244" cy="188" rx="212" ry="136" fill="url(#glowLeft)"/>
    <ellipse cx="1050" cy="458" rx="204" ry="128" fill="url(#glowRight)"/>
  </g>

  <rect x="96" y="96" width="1088" height="448" rx="28" fill="rgba(2,8,23,0.32)" stroke="#1E3A5F"/>

  <path d="M164 442C240 326 322 290 408 294C482 298 562 374 644 366C728 358 796 252 890 248C968 244 1030 292 1108 392" stroke="url(#line)" stroke-width="6" stroke-linecap="round"/>
  <circle cx="408" cy="294" r="9" fill="#22D3EE"/>
  <circle cx="644" cy="366" r="9" fill="#67E8F9"/>
  <circle cx="890" cy="248" r="9" fill="#FCD34D"/>

  <g opacity="0.88">
    <rect x="152" y="144" width="146" height="34" rx="17" fill="#0F172A" stroke="#155E75"/>
    <text x="225" y="166" fill="#A5F3FC" font-family="Inter, Arial, sans-serif" font-size="14" font-weight="700" text-anchor="middle">VALIDATED SMOKE</text>
  </g>

  <g opacity="0.92">
    <text x="152" y="236" fill="#E5E7EB" font-family="Inter, Arial, sans-serif" font-size="64" font-weight="800">MemQ Bench</text>
    <text x="152" y="286" fill="#67E8F9" font-family="Inter, Arial, sans-serif" font-size="24" font-weight="700">Reproducible agent-memory benchmarks for hosted and self-hosted MemQ.</text>
    <text x="152" y="342" fill="#CBD5E1" font-family="Inter, Arial, sans-serif" font-size="24" font-weight="500">Public proof for stateless vs structured memory, with pinned artifacts, deterministic verifiers,</text>
    <text x="152" y="378" fill="#CBD5E1" font-family="Inter, Arial, sans-serif" font-size="24" font-weight="500">and an accelerated retrieval ceiling built on context slicing, Soul Journal, Graphiti, and Qdrant.</text>
  </g>

  <g>
    <rect x="822" y="138" width="288" height="278" rx="24" fill="url(#panel)" stroke="#1F425E"/>
    <text x="854" y="182" fill="#7DD3FC" font-family="Inter, Arial, sans-serif" font-size="14" font-weight="700">CURRENT VALIDATED SNAPSHOT</text>
    <text x="854" y="242" fill="#F8FAFC" font-family="Inter, Arial, sans-serif" font-size="74" font-weight="800">3/3</text>
    <text x="854" y="274" fill="#CBD5E1" font-family="Inter, Arial, sans-serif" font-size="20" font-weight="600">MemQ core smoke pass rate</text>

    <text x="854" y="326" fill="#FBBF24" font-family="Inter, Arial, sans-serif" font-size="36" font-weight="800">+100 pts</text>
    <text x="854" y="352" fill="#CBD5E1" font-family="Inter, Arial, sans-serif" font-size="18" font-weight="600">over the stateless fixture baseline</text>

    <rect x="854" y="382" width="108" height="44" rx="14" fill="#082F49" stroke="#0EA5E9"/>
    <text x="908" y="410" fill="#BAE6FD" font-family="Inter, Arial, sans-serif" font-size="22" font-weight="800" text-anchor="middle">29 ms</text>
    <text x="980" y="410" fill="#CBD5E1" font-family="Inter, Arial, sans-serif" font-size="18" font-weight="600">avg core duration</text>
  </g>

  <g opacity="0.9">
    <rect x="152" y="478" width="242" height="34" rx="17" fill="#0F172A" stroke="#1E3A5F"/>
    <text x="273" y="500" fill="#E2E8F0" font-family="Inter, Arial, sans-serif" font-size="14" font-weight="700" text-anchor="middle">SOURCE OF TRUTH: artifacts/snapshot.json</text>
  </g>
</svg>
